<svg xmlns="http://www.w3.org/2000/svg" width="21.5" height="21.5" viewBox="0 0 21.5 21.5">
  <g id="icon_scan" transform="translate(0.5 0.5)">
    <g id="Group_41" data-name="Group 41" transform="translate(0.5 0.5)">
      <path id="Path_3" data-name="Path 3" d="M.5,5.587v-1.7A3.391,3.391,0,0,1,3.891.5h1.7" transform="translate(-0.5 -0.5)" fill="none" stroke="#fff" stroke-linecap="round" stroke-linejoin="round" stroke-width="2"/>
      <path id="Path_4" data-name="Path 4" d="M22.587,5.587v-1.7A3.391,3.391,0,0,0,19.2.5H17.5" transform="translate(-3.087 -0.5)" fill="none" stroke="#fff" stroke-linecap="round" stroke-linejoin="round" stroke-width="2"/>
      <path id="Path_5" data-name="Path 5" d="M.5,17.5v1.7a3.391,3.391,0,0,0,3.391,3.391h1.7" transform="translate(-0.5 -3.087)" fill="none" stroke="#fff" stroke-linecap="round" stroke-linejoin="round" stroke-width="2"/>
      <path id="Path_6" data-name="Path 6" d="M22.587,17.5v1.7A3.391,3.391,0,0,1,19.2,22.587H17.5" transform="translate(-3.087 -3.087)" fill="none" stroke="#fff" stroke-linecap="round" stroke-linejoin="round" stroke-width="2"/>
      <line id="Line_14" data-name="Line 14" x2="13.93" transform="translate(2.785 9.75)" fill="none" stroke="#fff" stroke-linecap="round" stroke-linejoin="round" stroke-width="2"/>
    </g>
  </g>
</svg>
